<svg width="18" height="16" viewBox="0 0 18 16" fill="none" xmlns="http://www.w3.org/2000/svg">
<path fill-rule="evenodd" clip-rule="evenodd" d="M4.67 0.948244L3.555 5.03449L3.5375 5.10699C1.39125 5.44824 0 5.99574 0 6.61324C0 7.64824 3.9175 8.48824 8.75 8.48824C13.5825 8.48824 17.5 7.64824 17.5 6.61324C17.5 5.99574 16.1087 5.44824 13.9625 5.10699L13.945 5.03449L12.83 0.946994C12.6475 0.280744 11.9575 -0.114256 11.2812 0.0294942C10.5137 0.191994 9.525 0.363244 8.75 0.363244C7.975 0.363244 6.98625 0.193244 6.21875 0.0294942C5.5425 -0.114256 4.8525 0.279494 4.67 0.948244ZM4.68875 5.78199C4.69281 5.7411 4.7049 5.70142 4.72432 5.66521C4.74374 5.62899 4.77011 5.59697 4.80193 5.57096C4.83374 5.54495 4.87037 5.52547 4.90972 5.51364C4.94907 5.5018 4.99037 5.49785 5.03125 5.50199C6.15625 5.61699 7.41875 5.68074 8.75 5.68074C9.99178 5.68277 11.2329 5.62311 12.4688 5.50199C12.5513 5.49371 12.6338 5.51855 12.698 5.57106C12.7622 5.62357 12.803 5.69945 12.8112 5.78199C12.8195 5.86454 12.7947 5.947 12.7422 6.01123C12.6897 6.07547 12.6138 6.11621 12.5312 6.12449C11.3837 6.24074 10.1012 6.30574 8.75 6.30574C7.39875 6.30574 6.11625 6.24074 4.96875 6.12449C4.92786 6.12043 4.88817 6.10834 4.85196 6.08892C4.81575 6.0695 4.78372 6.04313 4.75771 6.01132C4.73171 5.9795 4.71223 5.94287 4.70039 5.90352C4.68856 5.86417 4.6846 5.82288 4.68875 5.78199ZM3.125 10.9882H5.625C5.79076 10.9882 5.94973 11.0541 6.06694 11.1713C6.18415 11.2885 6.25 11.4475 6.25 11.6132V12.8632C6.25 13.3605 6.05246 13.8374 5.70083 14.1891C5.34919 14.5407 4.87228 14.7382 4.375 14.7382C3.87772 14.7382 3.40081 14.5407 3.04917 14.1891C2.69754 13.8374 2.5 13.3605 2.5 12.8632V11.6132C2.5 11.4475 2.56585 11.2885 2.68306 11.1713C2.80027 11.0541 2.95924 10.9882 3.125 10.9882ZM1.25 11.6132C1.25083 11.3932 1.28625 11.1849 1.35625 10.9882H1.25C1.08424 10.9882 0.925268 10.9224 0.808058 10.8052C0.690848 10.688 0.625 10.529 0.625 10.3632C0.625 10.1975 0.690848 10.0385 0.808058 9.9213C0.925268 9.80409 1.08424 9.73824 1.25 9.73824H5.625C6.08154 9.7383 6.52238 9.90492 6.86483 10.2069C7.20727 10.5088 7.42778 10.9253 7.485 11.3782C8.30993 11.1291 9.19007 11.1291 10.015 11.3782C10.0722 10.9253 10.2927 10.5088 10.6352 10.2069C10.9776 9.90492 11.4185 9.7383 11.875 9.73824H16.25C16.4158 9.73824 16.5747 9.80409 16.6919 9.9213C16.8092 10.0385 16.875 10.1975 16.875 10.3632C16.875 10.529 16.8092 10.688 16.6919 10.8052C16.5747 10.9224 16.4158 10.9882 16.25 10.9882H16.1437C16.2138 11.1849 16.2492 11.3932 16.25 11.6132V12.8632C16.25 13.692 15.9208 14.4869 15.3347 15.073C14.7487 15.659 13.9538 15.9882 13.125 15.9882C12.2962 15.9882 11.5013 15.659 10.9153 15.073C10.3292 14.4869 10 13.692 10 12.8632V12.6882L9.7375 12.6007C9.09648 12.3872 8.40352 12.3872 7.7625 12.6007L7.5 12.6882V12.8632C7.5 13.692 7.17076 14.4869 6.58471 15.073C5.99866 15.659 5.2038 15.9882 4.375 15.9882C3.5462 15.9882 2.75134 15.659 2.16529 15.073C1.57924 14.4869 1.25 13.692 1.25 12.8632V11.6132ZM11.875 10.9882H14.375C14.5408 10.9882 14.6997 11.0541 14.8169 11.1713C14.9342 11.2885 15 11.4475 15 11.6132V12.8632C15 13.3605 14.8025 13.8374 14.4508 14.1891C14.0992 14.5407 13.6223 14.7382 13.125 14.7382C12.6277 14.7382 12.1508 14.5407 11.7992 14.1891C11.4475 13.8374 11.25 13.3605 11.25 12.8632V11.6132C11.25 11.4475 11.3158 11.2885 11.4331 11.1713C11.5503 11.0541 11.7092 10.9882 11.875 10.9882Z" fill="#3B3B3B"/>
</svg>
