<svg width="24" height="24" viewBox="0 0 24 24" fill="none" xmlns="http://www.w3.org/2000/svg">
<path fill-rule="evenodd" clip-rule="evenodd" d="M12 22.5C14.7848 22.5 17.4555 21.3938 19.4246 19.4246C21.3938 17.4555 22.5 14.7848 22.5 12C22.5 9.21523 21.3938 6.54451 19.4246 4.57538C17.4555 2.60625 14.7848 1.5 12 1.5C9.21523 1.5 6.54451 2.60625 4.57538 4.57538C2.60625 6.54451 1.5 9.21523 1.5 12C1.5 14.7848 2.60625 17.4555 4.57538 19.4246C6.54451 21.3938 9.21523 22.5 12 22.5ZM12 0C15.1826 0 18.2348 1.26428 20.4853 3.51472C22.7357 5.76515 24 8.8174 24 12C24 15.1826 22.7357 18.2348 20.4853 20.4853C18.2348 22.7357 15.1826 24 12 24C8.8174 24 5.76516 22.7357 3.51472 20.4853C1.26428 18.2348 0 15.1826 0 12C0 8.8174 1.26428 5.76515 3.51472 3.51472C5.76516 1.26428 8.8174 0 12 0ZM17.25 11.25C17.4489 11.25 17.6397 11.329 17.7803 11.4697C17.921 11.6103 18 11.8011 18 12C18 12.1989 17.921 12.3897 17.7803 12.5303C17.6397 12.671 17.4489 12.75 17.25 12.75H8.5605L11.781 15.969C11.9218 16.1098 12.0009 16.3008 12.0009 16.5C12.0009 16.6992 11.9218 16.8902 11.781 17.031C11.6402 17.1718 11.4492 17.2509 11.25 17.2509C11.0508 17.2509 10.8598 17.1718 10.719 17.031L6.219 12.531C6.14916 12.4613 6.09374 12.3786 6.05593 12.2875C6.01812 12.1963 5.99866 12.0987 5.99866 12C5.99866 11.9013 6.01812 11.8037 6.05593 11.7126C6.09374 11.6214 6.14916 11.5387 6.219 11.469L10.719 6.969C10.8598 6.82817 11.0508 6.74905 11.25 6.74905C11.4492 6.74905 11.6402 6.82817 11.781 6.969C11.9218 7.10983 12.0009 7.30084 12.0009 7.5C12.0009 7.69916 11.9218 7.89017 11.781 8.031L8.5605 11.25H17.25Z" fill="currentColor"/>
</svg>
