<svg width="15" height="10" viewBox="0 0 15 10" fill="none" xmlns="http://www.w3.org/2000/svg">
<path fill-rule="evenodd" clip-rule="evenodd" d="M0.25 4.75063C0.25 4.61802 0.302678 4.49085 0.396447 4.39708C0.490215 4.30331 0.617392 4.25063 0.75 4.25063H12.543L9.396 1.10463C9.30211 1.01075 9.24937 0.883407 9.24937 0.750632C9.24937 0.617856 9.30211 0.490518 9.396 0.396631C9.48989 0.302745 9.61722 0.25 9.75 0.25C9.88278 0.25 10.0101 0.302745 10.104 0.396631L14.104 4.39663C14.1506 4.44308 14.1875 4.49825 14.2127 4.559C14.2379 4.61974 14.2509 4.68486 14.2509 4.75063C14.2509 4.8164 14.2379 4.88152 14.2127 4.94226C14.1875 5.00301 14.1506 5.05819 14.104 5.10463L10.104 9.10463C10.0101 9.19852 9.88278 9.25126 9.75 9.25126C9.61722 9.25126 9.48989 9.19852 9.396 9.10463C9.30211 9.01075 9.24937 8.88341 9.24937 8.75063C9.24937 8.61786 9.30211 8.49052 9.396 8.39663L12.543 5.25063H0.75C0.617392 5.25063 0.490215 5.19795 0.396447 5.10419C0.302678 5.01042 0.25 4.88324 0.25 4.75063Z" fill="currentColor" stroke="currentColor" stroke-width="0.5"/>
</svg>
