<svg width="18" height="18" viewBox="0 0 18 18" fill="none" xmlns="http://www.w3.org/2000/svg">
<path d="M9.56248 7.3125C9.56248 7.16332 9.50322 7.02024 9.39773 6.91475C9.29224 6.80926 9.14916 6.75 8.99998 6.75C8.85079 6.75 8.70772 6.80926 8.60223 6.91475C8.49674 7.02024 8.43748 7.16332 8.43748 7.3125V11.5796L7.14823 10.2892C7.09593 10.237 7.03384 10.1955 6.96551 10.1672C6.89718 10.1389 6.82394 10.1243 6.74998 10.1243C6.67602 10.1243 6.60278 10.1389 6.53445 10.1672C6.46611 10.1955 6.40403 10.237 6.35173 10.2892C6.29943 10.3415 6.25794 10.4036 6.22964 10.472C6.20134 10.5403 6.18677 10.6135 6.18677 10.6875C6.18677 10.7615 6.20134 10.8347 6.22964 10.903C6.25794 10.9714 6.29943 11.0335 6.35173 11.0858L8.60173 13.3358C8.65398 13.3881 8.71605 13.4297 8.78439 13.4581C8.85273 13.4864 8.92599 13.501 8.99998 13.501C9.07397 13.501 9.14723 13.4864 9.21557 13.4581C9.2839 13.4297 9.34598 13.3881 9.39823 13.3358L11.6482 11.0858C11.7005 11.0335 11.742 10.9714 11.7703 10.903C11.7986 10.8347 11.8132 10.7615 11.8132 10.6875C11.8132 10.6135 11.7986 10.5403 11.7703 10.472C11.742 10.4036 11.7005 10.3415 11.6482 10.2892C11.5959 10.237 11.5338 10.1955 11.4655 10.1672C11.3972 10.1389 11.3239 10.1243 11.25 10.1243C11.176 10.1243 11.1028 10.1389 11.0344 10.1672C10.9661 10.1955 10.904 10.237 10.8517 10.2892L9.56248 11.5796V7.3125Z" fill="#1E5086"/>
<path d="M15.75 15.75V5.0625L10.6875 0H4.5C3.90326 0 3.33097 0.237053 2.90901 0.65901C2.48705 1.08097 2.25 1.65326 2.25 2.25V15.75C2.25 16.3467 2.48705 16.919 2.90901 17.341C3.33097 17.7629 3.90326 18 4.5 18H13.5C14.0967 18 14.669 17.7629 15.091 17.341C15.5129 16.919 15.75 16.3467 15.75 15.75ZM10.6875 3.375C10.6875 3.82255 10.8653 4.25178 11.1818 4.56824C11.4982 4.88471 11.9274 5.0625 12.375 5.0625H14.625V15.75C14.625 16.0484 14.5065 16.3345 14.2955 16.5455C14.0845 16.7565 13.7984 16.875 13.5 16.875H4.5C4.20163 16.875 3.91548 16.7565 3.7045 16.5455C3.49353 16.3345 3.375 16.0484 3.375 15.75V2.25C3.375 1.95163 3.49353 1.66548 3.7045 1.4545C3.91548 1.24353 4.20163 1.125 4.5 1.125H10.6875V3.375Z" fill="#1E5086"/>
</svg>
