<svg width="20" height="20" viewBox="0 0 20 20" fill="none" xmlns="http://www.w3.org/2000/svg">
<g clip-path="url(#clip0_137_3046)">
<path d="M19.4312 8.1981C19.548 8.86928 19.6061 9.54934 19.605 10.2306C19.605 13.2731 18.5175 15.8456 16.625 17.5868H16.6275C14.9725 19.1156 12.6975 20.0006 10 20.0006C7.34784 20.0006 4.8043 18.947 2.92893 17.0717C1.05357 15.1963 0 12.6528 0 10.0006C0 7.34843 1.05357 4.80489 2.92893 2.92953C4.8043 1.05417 7.34784 0.000597503 10 0.000597503C12.4822 -0.0270449 14.879 0.905369 16.69 2.6031L13.835 5.4581C12.8028 4.47466 11.4255 3.93599 10 3.9581C7.39125 3.9581 5.175 5.7181 4.385 8.0881C3.96687 9.3301 3.96687 10.6748 4.385 11.9168H4.38875C5.1825 14.2831 7.395 16.0431 10.0037 16.0431C11.3513 16.0431 12.5088 15.6981 13.4062 15.0881H13.4025C13.9237 14.743 14.3696 14.2957 14.7131 13.7734C15.0567 13.2512 15.2908 12.6646 15.4012 12.0493H10V8.19935L19.4312 8.1981Z" fill="white"/>
</g>
<defs>
<clipPath id="clip0_137_3046">
<rect width="20" height="20" fill="white"/>
</clipPath>
</defs>
</svg>
