<svg width="24" height="15" viewBox="0 0 24 15" fill="none" xmlns="http://www.w3.org/2000/svg">
<path d="M7.46967 1.5C7.35726 1.50016 7.24633 1.52559 7.14507 1.5744C7.04381 1.62321 6.95482 1.69416 6.88467 1.782L2.30967 7.5H8.99967C9.19859 7.5 9.38935 7.57902 9.53 7.71967C9.67066 7.86032 9.74967 8.05109 9.74967 8.25C9.74967 8.84674 9.98673 9.41903 10.4087 9.84099C10.8306 10.2629 11.4029 10.5 11.9997 10.5C12.5964 10.5 13.1687 10.2629 13.5907 9.84099C14.0126 9.41903 14.2497 8.84674 14.2497 8.25C14.2497 8.05109 14.3287 7.86032 14.4693 7.71967C14.61 7.57902 14.8008 7.5 14.9997 7.5H21.6897L17.1147 1.782C17.0445 1.69416 16.9555 1.62321 16.8543 1.5744C16.753 1.52559 16.6421 1.50016 16.5297 1.5H7.46967ZM22.4007 9H15.6747C15.5025 9.84772 15.0426 10.6099 14.3729 11.1573C13.7031 11.7047 12.8647 12.0038 11.9997 12.0038C11.1347 12.0038 10.2962 11.7047 9.62648 11.1573C8.95672 10.6099 8.49681 9.84772 8.32467 9H1.59867L2.07867 12.843C2.10137 13.0246 2.18969 13.1917 2.32701 13.3127C2.46432 13.4337 2.64115 13.5003 2.82417 13.5H21.1752C21.3579 13.4999 21.5344 13.4332 21.6714 13.3122C21.8084 13.1912 21.8965 13.0244 21.9192 12.843L22.4007 9ZM5.71317 0.8445C5.92407 0.58086 6.19159 0.36806 6.49592 0.22187C6.80024 0.0756812 7.13356 -0.000148919 7.47117 2.19562e-07H16.5282C16.8658 -0.000148919 17.1991 0.0756812 17.5034 0.22187C17.8078 0.36806 18.0753 0.58086 18.2862 0.8445L23.8362 7.782C23.8985 7.86027 23.9446 7.95023 23.9716 8.04658C23.9987 8.14293 24.0062 8.24371 23.9937 8.343L23.4087 13.029C23.3407 13.5733 23.0761 14.0741 22.6648 14.437C22.2535 14.8 21.7237 15.0002 21.1752 15H2.82417C2.27561 15.0002 1.74586 14.8 1.33455 14.437C0.923235 14.0741 0.658695 13.5733 0.590673 13.029L0.00567314 8.343C-0.00662125 8.24361 0.00111377 8.14277 0.0284219 8.04642C0.05573 7.95006 0.102058 7.86016 0.164673 7.782L5.71317 0.8445Z" fill="white"/>
</svg>
