<svg width="16" height="16" viewBox="0 0 16 16" fill="none" xmlns="http://www.w3.org/2000/svg">
<path d="M15.8511 0.147915C15.9216 0.218556 15.9698 0.308363 15.9897 0.406179C16.0097 0.503994 16.0004 0.605509 15.9631 0.698112L10.035 15.5198C9.98276 15.6503 9.89553 15.7639 9.7829 15.8481C9.67027 15.9322 9.53661 15.9836 9.39664 15.9967C9.25667 16.0098 9.1158 15.9839 8.98955 15.9221C8.86331 15.8602 8.75656 15.7648 8.68108 15.6462L5.44347 10.5568L0.354786 7.31882C0.235915 7.2434 0.140186 7.13661 0.0781628 7.01023C0.0161392 6.88384 -0.00976808 6.74278 0.00329965 6.6026C0.0163674 6.46242 0.0679021 6.32857 0.152217 6.21583C0.236533 6.10309 0.35035 6.01584 0.481112 5.9637L15.301 0.0368563C15.3935 -0.000422363 15.4951 -0.00967355 15.5929 0.0102519C15.6907 0.0301774 15.7805 0.0784014 15.8511 0.148933V0.147915ZM6.46019 10.2593L9.27298 14.6792L14.0947 2.6238L6.46019 10.2593ZM13.3745 1.90345L1.32057 6.72583L5.74095 9.53795L13.3745 1.90345Z" fill="white"/>
</svg>
